<?xml version="1.0" encoding="utf-8" standalone="no"?>
<!DOCTYPE svg PUBLIC "-//W3C//DTD SVG 1.1//EN"
  "http://www.w3.org/Graphics/SVG/1.1/DTD/svg11.dtd">
<svg xmlns:xlink="http://www.w3.org/1999/xlink" width="828pt" height="345.6pt" viewBox="0 0 828 345.6" xmlns="http://www.w3.org/2000/svg" version="1.1">
 <metadata>
  <rdf:RDF xmlns:dc="http://purl.org/dc/elements/1.1/" xmlns:cc="http://creativecommons.org/ns#" xmlns:rdf="http://www.w3.org/1999/02/22-rdf-syntax-ns#">
   <cc:Work>
    <dc:type rdf:resource="http://purl.org/dc/dcmitype/StillImage"/>
    <dc:date>2026-09-23T13:45:49.493715</dc:date>
    <dc:format>image/svg+xml</dc:format>
    <dc:creator>
     <cc:Agent>
      <dc:title>Matplotlib v3.11.2, https://matplotlib.org/</dc:title>
     </cc:Agent>
    </dc:creator>
   </cc:Work>
  </rdf:RDF>
 </metadata>
 <defs>
  <style type="text/css">*{stroke-linejoin: round; stroke-linecap: butt}</style>
 </defs>
 <g id="figure_1">
  <g id="patch_1">
   <path d="M 0 345.6 
L 828 345.6 
L 828 0 
L 0 0 
z
" style="fill: #ffffff"/>
  </g>
  <g id="axes_1">
   <g id="patch_2">
    <path d="M 43.088521 309.868217 
L 409.86 309.868217 
L 409.86 40.120095 
L 43.088521 40.120095 
z
" style="fill: #ffffff"/>
   </g>
   <g id="matplotlib.axis_1">
    <g id="xtick_1">
     <g id="line2d_1">
      <defs>
       <path id="m63eef8aca8" d="M 0 0 
L 0 3.5 
" style="stroke: #000000; stroke-width: 0.8"/>
      </defs>
      <g>
       <use xlink:href="#m63eef8aca8" x="85.190948" y="309.868217" style="stroke: #000000; stroke-width: 0.8"/>
      </g>
     </g>
     <g id="text_1">
      <!-- 0+1+2 -->
      <g transform="translate(49.943754 333.484843) rotate(-15) scale(0.1 -0.1)">
       <defs>
        <path id="DejaVuSans-13" d="M 2034 4250 
Q 1547 4250 1301 3770 
Q 1056 3291 1056 2328 
Q 1056 1369 1301 889 
Q 1547 409 2034 409 
Q 2525 409 2770 889 
Q 3016 1369 3016 2328 
Q 3016 3291 2770 3770 
Q 2525 4250 2034 4250 
z
M 2034 4750 
Q 2819 4750 3233 4129 
Q 3647 3509 3647 2328 
Q 3647 1150 3233 529 
Q 2819 -91 2034 -91 
Q 1250 -91 836 529 
Q 422 1150 422 2328 
Q 422 3509 836 4129 
Q 1250 4750 2034 4750 
z
" transform="scale(0.015625)"/>
        <path id="DejaVuSans-e" d="M 2944 4013 
L 2944 2272 
L 4684 2272 
L 4684 1741 
L 2944 1741 
L 2944 0 
L 2419 0 
L 2419 1741 
L 678 1741 
L 678 2272 
L 2419 2272 
L 2419 4013 
L 2944 4013 
z
" transform="scale(0.015625)"/>
        <path id="DejaVuSans-14" d="M 794 531 
L 1825 531 
L 1825 4091 
L 703 3866 
L 703 4441 
L 1819 4666 
L 2450 4666 
L 2450 531 
L 3481 531 
L 3481 0 
L 794 0 
L 794 531 
z
" transform="scale(0.015625)"/>
        <path id="DejaVuSans-15" d="M 1228 531 
L 3431 531 
L 3431 0 
L 469 0 
L 469 531 
Q 828 903 1448 1529 
Q 2069 2156 2228 2338 
Q 2531 2678 2651 2914 
Q 2772 3150 2772 3378 
Q 2772 3750 2511 3984 
Q 2250 4219 1831 4219 
Q 1534 4219 1204 4116 
Q 875 4013 500 3803 
L 500 4441 
Q 881 4594 1212 4672 
Q 1544 4750 1819 4750 
Q 2544 4750 2975 4387 
Q 3406 4025 3406 3419 
Q 3406 3131 3298 2873 
Q 3191 2616 2906 2266 
Q 2828 2175 2409 1742 
Q 1991 1309 1228 531 
z
" transform="scale(0.015625)"/>
       </defs>
       <use xlink:href="#DejaVuSans-13"/>
       <use xlink:href="#DejaVuSans-e" transform="translate(63.625 0)"/>
       <use xlink:href="#DejaVuSans-14" transform="translate(147.421875 0)"/>
       <use xlink:href="#DejaVuSans-e" transform="translate(211.046875 0)"/>
       <use xlink:href="#DejaVuSans-15" transform="translate(294.84375 0)"/>
      </g>
     </g>
    </g>
    <g id="xtick_2">
     <g id="line2d_2">
      <g>
       <use xlink:href="#m63eef8aca8" x="155.832604" y="309.868217" style="stroke: #000000; stroke-width: 0.8"/>
      </g>
     </g>
     <g id="text_2">
      <!-- 0+1+3 -->
      <g transform="translate(120.58541 333.484843) rotate(-15) scale(0.1 -0.1)">
       <defs>
        <path id="DejaVuSans-16" d="M 2597 2516 
Q 3050 2419 3304 2112 
Q 3559 1806 3559 1356 
Q 3559 666 3084 287 
Q 2609 -91 1734 -91 
Q 1441 -91 1130 -33 
Q 819 25 488 141 
L 488 750 
Q 750 597 1062 519 
Q 1375 441 1716 441 
Q 2309 441 2620 675 
Q 2931 909 2931 1356 
Q 2931 1769 2642 2001 
Q 2353 2234 1838 2234 
L 1294 2234 
L 1294 2753 
L 1863 2753 
Q 2328 2753 2575 2939 
Q 2822 3125 2822 3475 
Q 2822 3834 2567 4026 
Q 2313 4219 1838 4219 
Q 1578 4219 1281 4162 
Q 984 4106 628 3988 
L 628 4550 
Q 988 4650 1302 4700 
Q 1616 4750 1894 4750 
Q 2613 4750 3031 4423 
Q 3450 4097 3450 3541 
Q 3450 3153 3228 2886 
Q 3006 2619 2597 2516 
z
" transform="scale(0.015625)"/>
       </defs>
       <use xlink:href="#DejaVuSans-13"/>
       <use xlink:href="#DejaVuSans-e" transform="translate(63.625 0)"/>
       <use xlink:href="#DejaVuSans-14" transform="translate(147.421875 0)"/>
       <use xlink:href="#DejaVuSans-e" transform="translate(211.046875 0)"/>
       <use xlink:href="#DejaVuSans-16" transform="translate(294.84375 0)"/>
      </g>
     </g>
    </g>
    <g id="xtick_3">
     <g id="line2d_3">
      <g>
       <use xlink:href="#m63eef8aca8" x="226.474261" y="309.868217" style="stroke: #000000; stroke-width: 0.8"/>
      </g>
     </g>
     <g id="text_3">
      <!-- 0+2+3 -->
      <g transform="translate(191.227066 333.484843) rotate(-15) scale(0.1 -0.1)">
       <use xlink:href="#DejaVuSans-13"/>
       <use xlink:href="#DejaVuSans-e" transform="translate(63.625 0)"/>
       <use xlink:href="#DejaVuSans-15" transform="translate(147.421875 0)"/>
       <use xlink:href="#DejaVuSans-e" transform="translate(211.046875 0)"/>
       <use xlink:href="#DejaVuSans-16" transform="translate(294.84375 0)"/>
      </g>
     </g>
    </g>
    <g id="xtick_4">
     <g id="line2d_4">
      <g>
       <use xlink:href="#m63eef8aca8" x="297.115917" y="309.868217" style="stroke: #000000; stroke-width: 0.8"/>
      </g>
     </g>
     <g id="text_4">
      <!-- 1+2+3 -->
      <g transform="translate(261.868722 333.484843) rotate(-15) scale(0.1 -0.1)">
       <use xlink:href="#DejaVuSans-14"/>
       <use xlink:href="#DejaVuSans-e" transform="translate(63.625 0)"/>
       <use xlink:href="#DejaVuSans-15" transform="translate(147.421875 0)"/>
       <use xlink:href="#DejaVuSans-e" transform="translate(211.046875 0)"/>
       <use xlink:href="#DejaVuSans-16" transform="translate(294.84375 0)"/>
      </g>
     </g>
    </g>
    <g id="xtick_5">
     <g id="line2d_5">
      <g>
       <use xlink:href="#m63eef8aca8" x="367.757573" y="309.868217" style="stroke: #000000; stroke-width: 0.8"/>
      </g>
     </g>
     <g id="text_5">
      <!-- All -->
      <g transform="translate(355.161339 327.416291) rotate(-15) scale(0.1 -0.1)">
       <defs>
        <path id="DejaVuSans-24" d="M 2188 4044 
L 1331 1722 
L 3047 1722 
L 2188 4044 
z
M 1831 4666 
L 2547 4666 
L 4325 0 
L 3669 0 
L 3244 1197 
L 1141 1197 
L 716 0 
L 50 0 
L 1831 4666 
z
" transform="scale(0.015625)"/>
        <path id="DejaVuSans-4f" d="M 603 4863 
L 1178 4863 
L 1178 0 
L 603 0 
L 603 4863 
z
" transform="scale(0.015625)"/>
       </defs>
       <use xlink:href="#DejaVuSans-24"/>
       <use xlink:href="#DejaVuSans-4f" transform="translate(68.40625 0)"/>
       <use xlink:href="#DejaVuSans-4f" transform="translate(96.1875 0)"/>
      </g>
     </g>
    </g>
   </g>
   <g id="matplotlib.axis_2">
    <g id="ytick_1">
     <g id="line2d_6">
      <path d="M 43.088521 309.868217 
L 409.86 309.868217 
" clip-path="url(#p3ea9f3ceb3)" style="fill: none; stroke: #d9dee8; stroke-opacity: 0.75; stroke-width: 0.8; stroke-linecap: square"/>
     </g>
     <g id="line2d_7">
      <defs>
       <path id="m378b70726b" d="M 0 0 
L -3.5 0 
" style="stroke: #000000; stroke-width: 0.8"/>
      </defs>
      <g>
       <use xlink:href="#m378b70726b" x="43.088521" y="309.868217" style="stroke: #000000; stroke-width: 0.8"/>
      </g>
     </g>
     <g id="text_6">
      <!-- 0 -->
      <g transform="translate(29.726021 313.667045) scale(0.1 -0.1)">
       <use xlink:href="#DejaVuSans-13"/>
      </g>
     </g>
    </g>
    <g id="ytick_2">
     <g id="line2d_8">
      <path d="M 43.088521 258.487622 
L 409.86 258.487622 
" clip-path="url(#p3ea9f3ceb3)" style="fill: none; stroke: #d9dee8; stroke-opacity: 0.75; stroke-width: 0.8; stroke-linecap: square"/>
     </g>
     <g id="line2d_9">
      <g>
       <use xlink:href="#m378b70726b" x="43.088521" y="258.487622" style="stroke: #000000; stroke-width: 0.8"/>
      </g>
     </g>
     <g id="text_7">
      <!-- 20 -->
      <g transform="translate(23.363521 262.28645) scale(0.1 -0.1)">
       <use xlink:href="#DejaVuSans-15"/>
       <use xlink:href="#DejaVuSans-13" transform="translate(63.625 0)"/>
      </g>
     </g>
    </g>
    <g id="ytick_3">
     <g id="line2d_10">
      <path d="M 43.088521 207.107028 
L 409.86 207.107028 
" clip-path="url(#p3ea9f3ceb3)" style="fill: none; stroke: #d9dee8; stroke-opacity: 0.75; stroke-width: 0.8; stroke-linecap: square"/>
     </g>
     <g id="line2d_11">
      <g>
       <use xlink:href="#m378b70726b" x="43.088521" y="207.107028" style="stroke: #000000; stroke-width: 0.8"/>
      </g>
     </g>
     <g id="text_8">
      <!-- 40 -->
      <g transform="translate(23.363521 210.905856) scale(0.1 -0.1)">
       <defs>
        <path id="DejaVuSans-17" d="M 2419 4116 
L 825 1625 
L 2419 1625 
L 2419 4116 
z
M 2253 4666 
L 3047 4666 
L 3047 1625 
L 3713 1625 
L 3713 1100 
L 3047 1100 
L 3047 0 
L 2419 0 
L 2419 1100 
L 313 1100 
L 313 1709 
L 2253 4666 
z
" transform="scale(0.015625)"/>
       </defs>
       <use xlink:href="#DejaVuSans-17"/>
       <use xlink:href="#DejaVuSans-13" transform="translate(63.625 0)"/>
      </g>
     </g>
    </g>
    <g id="ytick_4">
     <g id="line2d_12">
      <path d="M 43.088521 155.726433 
L 409.86 155.726433 
" clip-path="url(#p3ea9f3ceb3)" style="fill: none; stroke: #d9dee8; stroke-opacity: 0.75; stroke-width: 0.8; stroke-linecap: square"/>
     </g>
     <g id="line2d_13">
      <g>
       <use xlink:href="#m378b70726b" x="43.088521" y="155.726433" style="stroke: #000000; stroke-width: 0.8"/>
      </g>
     </g>
     <g id="text_9">
      <!-- 60 -->
      <g transform="translate(23.363521 159.525261) scale(0.1 -0.1)">
       <defs>
        <path id="DejaVuSans-19" d="M 2113 2584 
Q 1688 2584 1439 2293 
Q 1191 2003 1191 1497 
Q 1191 994 1439 701 
Q 1688 409 2113 409 
Q 2538 409 2786 701 
Q 3034 994 3034 1497 
Q 3034 2003 2786 2293 
Q 2538 2584 2113 2584 
z
M 3366 4563 
L 3366 3988 
Q 3128 4100 2886 4159 
Q 2644 4219 2406 4219 
Q 1781 4219 1451 3797 
Q 1122 3375 1075 2522 
Q 1259 2794 1537 2939 
Q 1816 3084 2150 3084 
Q 2853 3084 3261 2657 
Q 3669 2231 3669 1497 
Q 3669 778 3244 343 
Q 2819 -91 2113 -91 
Q 1303 -91 875 529 
Q 447 1150 447 2328 
Q 447 3434 972 4092 
Q 1497 4750 2381 4750 
Q 2619 4750 2861 4703 
Q 3103 4656 3366 4563 
z
" transform="scale(0.015625)"/>
       </defs>
       <use xlink:href="#DejaVuSans-19"/>
       <use xlink:href="#DejaVuSans-13" transform="translate(63.625 0)"/>
      </g>
     </g>
    </g>
    <g id="ytick_5">
     <g id="line2d_14">
      <path d="M 43.088521 104.345838 
L 409.86 104.345838 
" clip-path="url(#p3ea9f3ceb3)" style="fill: none; stroke: #d9dee8; stroke-opacity: 0.75; stroke-width: 0.8; stroke-linecap: square"/>
     </g>
     <g id="line2d_15">
      <g>
       <use xlink:href="#m378b70726b" x="43.088521" y="104.345838" style="stroke: #000000; stroke-width: 0.8"/>
      </g>
     </g>
     <g id="text_10">
      <!-- 80 -->
      <g transform="translate(23.363521 108.144666) scale(0.1 -0.1)">
       <defs>
        <path id="DejaVuSans-1b" d="M 2034 2216 
Q 1584 2216 1326 1975 
Q 1069 1734 1069 1313 
Q 1069 891 1326 650 
Q 1584 409 2034 409 
Q 2484 409 2743 651 
Q 3003 894 3003 1313 
Q 3003 1734 2745 1975 
Q 2488 2216 2034 2216 
z
M 1403 2484 
Q 997 2584 770 2862 
Q 544 3141 544 3541 
Q 544 4100 942 4425 
Q 1341 4750 2034 4750 
Q 2731 4750 3128 4425 
Q 3525 4100 3525 3541 
Q 3525 3141 3298 2862 
Q 3072 2584 2669 2484 
Q 3125 2378 3379 2068 
Q 3634 1759 3634 1313 
Q 3634 634 3220 271 
Q 2806 -91 2034 -91 
Q 1263 -91 848 271 
Q 434 634 434 1313 
Q 434 1759 690 2068 
Q 947 2378 1403 2484 
z
M 1172 3481 
Q 1172 3119 1398 2916 
Q 1625 2713 2034 2713 
Q 2441 2713 2670 2916 
Q 2900 3119 2900 3481 
Q 2900 3844 2670 4047 
Q 2441 4250 2034 4250 
Q 1625 4250 1398 4047 
Q 1172 3844 1172 3481 
z
" transform="scale(0.015625)"/>
       </defs>
       <use xlink:href="#DejaVuSans-1b"/>
       <use xlink:href="#DejaVuSans-13" transform="translate(63.625 0)"/>
      </g>
     </g>
    </g>
    <g id="ytick_6">
     <g id="line2d_16">
      <path d="M 43.088521 52.965244 
L 409.86 52.965244 
" clip-path="url(#p3ea9f3ceb3)" style="fill: none; stroke: #d9dee8; stroke-opacity: 0.75; stroke-width: 0.8; stroke-linecap: square"/>
     </g>
     <g id="line2d_17">
      <g>
       <use xlink:href="#m378b70726b" x="43.088521" y="52.965244" style="stroke: #000000; stroke-width: 0.8"/>
      </g>
     </g>
     <g id="text_11">
      <!-- 100 -->
      <g transform="translate(17.001021 56.764072) scale(0.1 -0.1)">
       <use xlink:href="#DejaVuSans-14"/>
       <use xlink:href="#DejaVuSans-13" transform="translate(63.625 0)"/>
       <use xlink:href="#DejaVuSans-13" transform="translate(127.25 0)"/>
      </g>
     </g>
    </g>
    <g id="text_12">
     <!-- discovery donor answers (%) -->
     <g transform="translate(10.598678 247.6215) rotate(-90) scale(0.1 -0.1)">
      <defs>
       <path id="DejaVuSans-47" d="M 2906 2969 
L 2906 4863 
L 3481 4863 
L 3481 0 
L 2906 0 
L 2906 525 
Q 2725 213 2448 61 
Q 2172 -91 1784 -91 
Q 1150 -91 751 415 
Q 353 922 353 1747 
Q 353 2572 751 3078 
Q 1150 3584 1784 3584 
Q 2172 3584 2448 3432 
Q 2725 3281 2906 2969 
z
M 947 1747 
Q 947 1113 1208 752 
Q 1469 391 1925 391 
Q 2381 391 2643 752 
Q 2906 1113 2906 1747 
Q 2906 2381 2643 2742 
Q 2381 3103 1925 3103 
Q 1469 3103 1208 2742 
Q 947 2381 947 1747 
z
" transform="scale(0.015625)"/>
       <path id="DejaVuSans-4c" d="M 603 3500 
L 1178 3500 
L 1178 0 
L 603 0 
L 603 3500 
z
M 603 4863 
L 1178 4863 
L 1178 4134 
L 603 4134 
L 603 4863 
z
" transform="scale(0.015625)"/>
       <path id="DejaVuSans-56" d="M 2834 3397 
L 2834 2853 
Q 2591 2978 2328 3040 
Q 2066 3103 1784 3103 
Q 1356 3103 1142 2972 
Q 928 2841 928 2578 
Q 928 2378 1081 2264 
Q 1234 2150 1697 2047 
L 1894 2003 
Q 2506 1872 2764 1633 
Q 3022 1394 3022 966 
Q 3022 478 2636 193 
Q 2250 -91 1575 -91 
Q 1294 -91 989 -36 
Q 684 19 347 128 
L 347 722 
Q 666 556 975 473 
Q 1284 391 1588 391 
Q 1994 391 2212 530 
Q 2431 669 2431 922 
Q 2431 1156 2273 1281 
Q 2116 1406 1581 1522 
L 1381 1569 
Q 847 1681 609 1914 
Q 372 2147 372 2553 
Q 372 3047 722 3315 
Q 1072 3584 1716 3584 
Q 2034 3584 2315 3537 
Q 2597 3491 2834 3397 
z
" transform="scale(0.015625)"/>
       <path id="DejaVuSans-46" d="M 3122 3366 
L 3122 2828 
Q 2878 2963 2633 3030 
Q 2388 3097 2138 3097 
Q 1578 3097 1268 2742 
Q 959 2388 959 1747 
Q 959 1106 1268 751 
Q 1578 397 2138 397 
Q 2388 397 2633 464 
Q 2878 531 3122 666 
L 3122 134 
Q 2881 22 2623 -34 
Q 2366 -91 2075 -91 
Q 1284 -91 818 406 
Q 353 903 353 1747 
Q 353 2603 823 3093 
Q 1294 3584 2113 3584 
Q 2378 3584 2631 3529 
Q 2884 3475 3122 3366 
z
" transform="scale(0.015625)"/>
       <path id="DejaVuSans-52" d="M 1959 3097 
Q 1497 3097 1228 2736 
Q 959 2375 959 1747 
Q 959 1119 1226 758 
Q 1494 397 1959 397 
Q 2419 397 2687 759 
Q 2956 1122 2956 1747 
Q 2956 2369 2687 2733 
Q 2419 3097 1959 3097 
z
M 1959 3584 
Q 2709 3584 3137 3096 
Q 3566 2609 3566 1747 
Q 3566 888 3137 398 
Q 2709 -91 1959 -91 
Q 1206 -91 779 398 
Q 353 888 353 1747 
Q 353 2609 779 3096 
Q 1206 3584 1959 3584 
z
" transform="scale(0.015625)"/>
       <path id="DejaVuSans-59" d="M 191 3500 
L 800 3500 
L 1894 563 
L 2988 3500 
L 3597 3500 
L 2284 0 
L 1503 0 
L 191 3500 
z
" transform="scale(0.015625)"/>
       <path id="DejaVuSans-48" d="M 3597 1894 
L 3597 1613 
L 953 1613 
Q 991 1019 1311 708 
Q 1631 397 2203 397 
Q 2534 397 2845 478 
Q 3156 559 3463 722 
L 3463 178 
Q 3153 47 2828 -22 
Q 2503 -91 2169 -91 
Q 1331 -91 842 396 
Q 353 884 353 1716 
Q 353 2575 817 3079 
Q 1281 3584 2069 3584 
Q 2775 3584 3186 3129 
Q 3597 2675 3597 1894 
z
M 3022 2063 
Q 3016 2534 2758 2815 
Q 2500 3097 2075 3097 
Q 1594 3097 1305 2825 
Q 1016 2553 972 2059 
L 3022 2063 
z
" transform="scale(0.015625)"/>
       <path id="DejaVuSans-55" d="M 2631 2963 
Q 2534 3019 2420 3045 
Q 2306 3072 2169 3072 
Q 1681 3072 1420 2755 
Q 1159 2438 1159 1844 
L 1159 0 
L 581 0 
L 581 3500 
L 1159 3500 
L 1159 2956 
Q 1341 3275 1631 3429 
Q 1922 3584 2338 3584 
Q 2397 3584 2469 3576 
Q 2541 3569 2628 3553 
L 2631 2963 
z
" transform="scale(0.015625)"/>
       <path id="DejaVuSans-5c" d="M 2059 -325 
Q 1816 -950 1584 -1140 
Q 1353 -1331 966 -1331 
L 506 -1331 
L 506 -850 
L 844 -850 
Q 1081 -850 1212 -737 
Q 1344 -625 1503 -206 
L 1606 56 
L 191 3500 
L 800 3500 
L 1894 763 
L 2988 3500 
L 3597 3500 
L 2059 -325 
z
" transform="scale(0.015625)"/>
       <path id="DejaVuSans-3" transform="scale(0.015625)"/>
       <path id="DejaVuSans-51" d="M 3513 2113 
L 3513 0 
L 2938 0 
L 2938 2094 
Q 2938 2591 2744 2837 
Q 2550 3084 2163 3084 
Q 1697 3084 1428 2787 
Q 1159 2491 1159 1978 
L 1159 0 
L 581 0 
L 581 3500 
L 1159 3500 
L 1159 2956 
Q 1366 3272 1645 3428 
Q 1925 3584 2291 3584 
Q 2894 3584 3203 3211 
Q 3513 2838 3513 2113 
z
" transform="scale(0.015625)"/>
       <path id="DejaVuSans-44" d="M 2194 1759 
Q 1497 1759 1228 1600 
Q 959 1441 959 1056 
Q 959 750 1161 570 
Q 1363 391 1709 391 
Q 2188 391 2477 730 
Q 2766 1069 2766 1631 
L 2766 1759 
L 2194 1759 
z
M 3341 1997 
L 3341 0 
L 2766 0 
L 2766 531 
Q 2569 213 2275 61 
Q 1981 -91 1556 -91 
Q 1019 -91 701 211 
Q 384 513 384 1019 
Q 384 1609 779 1909 
Q 1175 2209 1959 2209 
L 2766 2209 
L 2766 2266 
Q 2766 2663 2505 2880 
Q 2244 3097 1772 3097 
Q 1472 3097 1187 3025 
Q 903 2953 641 2809 
L 641 3341 
Q 956 3463 1253 3523 
Q 1550 3584 1831 3584 
Q 2591 3584 2966 3190 
Q 3341 2797 3341 1997 
z
" transform="scale(0.015625)"/>
       <path id="DejaVuSans-5a" d="M 269 3500 
L 844 3500 
L 1563 769 
L 2278 3500 
L 2956 3500 
L 3675 769 
L 4391 3500 
L 4966 3500 
L 4050 0 
L 3372 0 
L 2619 2869 
L 1863 0 
L 1184 0 
L 269 3500 
z
" transform="scale(0.015625)"/>
       <path id="DejaVuSans-b" d="M 1984 4856 
Q 1566 4138 1362 3434 
Q 1159 2731 1159 2009 
Q 1159 1288 1364 580 
Q 1569 -128 1984 -844 
L 1484 -844 
Q 1016 -109 783 600 
Q 550 1309 550 2009 
Q 550 2706 781 3412 
Q 1013 4119 1484 4856 
L 1984 4856 
z
" transform="scale(0.015625)"/>
       <path id="DejaVuSans-8" d="M 4653 2053 
Q 4381 2053 4226 1822 
Q 4072 1591 4072 1178 
Q 4072 772 4226 539 
Q 4381 306 4653 306 
Q 4919 306 5073 539 
Q 5228 772 5228 1178 
Q 5228 1588 5073 1820 
Q 4919 2053 4653 2053 
z
M 4653 2450 
Q 5147 2450 5437 2106 
Q 5728 1763 5728 1178 
Q 5728 594 5436 251 
Q 5144 -91 4653 -91 
Q 4153 -91 3862 251 
Q 3572 594 3572 1178 
Q 3572 1766 3864 2108 
Q 4156 2450 4653 2450 
z
M 1428 4353 
Q 1159 4353 1004 4120 
Q 850 3888 850 3481 
Q 850 3069 1003 2837 
Q 1156 2606 1428 2606 
Q 1700 2606 1854 2837 
Q 2009 3069 2009 3481 
Q 2009 3884 1853 4118 
Q 1697 4353 1428 4353 
z
M 4250 4750 
L 4750 4750 
L 1831 -91 
L 1331 -91 
L 4250 4750 
z
M 1428 4750 
Q 1922 4750 2215 4408 
Q 2509 4066 2509 3481 
Q 2509 2891 2217 2550 
Q 1925 2209 1428 2209 
Q 931 2209 642 2551 
Q 353 2894 353 3481 
Q 353 4063 643 4406 
Q 934 4750 1428 4750 
z
" transform="scale(0.015625)"/>
       <path id="DejaVuSans-c" d="M 513 4856 
L 1013 4856 
Q 1481 4119 1714 3412 
Q 1947 2706 1947 2009 
Q 1947 1309 1714 600 
Q 1481 -109 1013 -844 
L 513 -844 
Q 928 -128 1133 580 
Q 1338 1288 1338 2009 
Q 1338 2731 1133 3434 
Q 928 4138 513 4856 
z
" transform="scale(0.015625)"/>
      </defs>
      <use xlink:href="#DejaVuSans-47"/>
      <use xlink:href="#DejaVuSans-4c" transform="translate(63.484375 0)"/>
      <use xlink:href="#DejaVuSans-56" transform="translate(91.265625 0)"/>
      <use xlink:href="#DejaVuSans-46" transform="translate(143.359375 0)"/>
      <use xlink:href="#DejaVuSans-52" transform="translate(198.34375 0)"/>
      <use xlink:href="#DejaVuSans-59" transform="translate(259.53125 0)"/>
      <use xlink:href="#DejaVuSans-48" transform="translate(318.71875 0)"/>
      <use xlink:href="#DejaVuSans-55" transform="translate(380.25 0)"/>
      <use xlink:href="#DejaVuSans-5c" transform="translate(421.359375 0)"/>
      <use xlink:href="#DejaVuSans-3" transform="translate(480.546875 0)"/>
      <use xlink:href="#DejaVuSans-47" transform="translate(512.328125 0)"/>
      <use xlink:href="#DejaVuSans-52" transform="translate(575.8125 0)"/>
      <use xlink:href="#DejaVuSans-51" transform="translate(637 0)"/>
      <use xlink:href="#DejaVuSans-52" transform="translate(700.375 0)"/>
      <use xlink:href="#DejaVuSans-55" transform="translate(761.5625 0)"/>
      <use xlink:href="#DejaVuSans-3" transform="translate(802.671875 0)"/>
      <use xlink:href="#DejaVuSans-44" transform="translate(834.453125 0)"/>
      <use xlink:href="#DejaVuSans-51" transform="translate(895.734375 0)"/>
      <use xlink:href="#DejaVuSans-56" transform="translate(959.109375 0)"/>
      <use xlink:href="#DejaVuSans-5a" transform="translate(1011.203125 0)"/>
      <use xlink:href="#DejaVuSans-48" transform="translate(1092.984375 0)"/>
      <use xlink:href="#DejaVuSans-55" transform="translate(1154.515625 0)"/>
      <use xlink:href="#DejaVuSans-56" transform="translate(1195.625 0)"/>
      <use xlink:href="#DejaVuSans-3" transform="translate(1247.71875 0)"/>
      <use xlink:href="#DejaVuSans-b" transform="translate(1279.5 0)"/>
      <use xlink:href="#DejaVuSans-8" transform="translate(1318.515625 0)"/>
      <use xlink:href="#DejaVuSans-c" transform="translate(1413.53125 0)"/>
     </g>
    </g>
   </g>
   <g id="patch_3">
    <path d="M 59.759952 309.868217 
L 85.190948 309.868217 
L 85.190948 79.72597 
L 59.759952 79.72597 
z
" clip-path="url(#p3ea9f3ceb3)" style="fill: #2457c5"/>
   </g>
   <g id="patch_4">
    <path d="M 130.401608 309.868217 
L 155.832604 309.868217 
L 155.832604 234.269165 
L 130.401608 234.269165 
z
" clip-path="url(#p3ea9f3ceb3)" style="fill: #2457c5"/>
   </g>
   <g id="patch_5">
    <path d="M 201.043264 309.868217 
L 226.474261 309.868217 
L 226.474261 184.761821 
L 201.043264 184.761821 
z
" clip-path="url(#p3ea9f3ceb3)" style="fill: #2457c5"/>
   </g>
   <g id="patch_6">
    <path d="M 271.684921 309.868217 
L 297.115917 309.868217 
L 297.115917 307.192144 
L 271.684921 307.192144 
z
" clip-path="url(#p3ea9f3ceb3)" style="fill: #2457c5"/>
   </g>
   <g id="patch_7">
    <path d="M 342.326577 309.868217 
L 367.757573 309.868217 
L 367.757573 59.655425 
L 342.326577 59.655425 
z
" clip-path="url(#p3ea9f3ceb3)" style="fill: #2457c5"/>
   </g>
   <g id="patch_8">
    <path d="M 85.190948 309.868217 
L 110.621945 309.868217 
L 110.621945 111.169824 
L 85.190948 111.169824 
z
" clip-path="url(#p3ea9f3ceb3)" style="fill: #e05a47"/>
   </g>
   <g id="patch_9">
    <path d="M 155.832604 309.868217 
L 181.263601 309.868217 
L 181.263601 236.276219 
L 155.832604 236.276219 
z
" clip-path="url(#p3ea9f3ceb3)" style="fill: #e05a47"/>
   </g>
   <g id="patch_10">
    <path d="M 226.474261 309.868217 
L 251.905257 309.868217 
L 251.905257 62.331498 
L 226.474261 62.331498 
z
" clip-path="url(#p3ea9f3ceb3)" style="fill: #e05a47"/>
   </g>
   <g id="patch_11">
    <path d="M 297.115917 309.868217 
L 322.546913 309.868217 
L 322.546913 309.868217 
L 297.115917 309.868217 
z
" clip-path="url(#p3ea9f3ceb3)" style="fill: #e05a47"/>
   </g>
   <g id="patch_12">
    <path d="M 367.757573 309.868217 
L 393.188569 309.868217 
L 393.188569 60.324443 
L 367.757573 60.324443 
z
" clip-path="url(#p3ea9f3ceb3)" style="fill: #e05a47"/>
   </g>
   <g id="patch_13">
    <path d="M 43.088521 309.868217 
L 43.088521 40.120095 
" style="fill: none; stroke: #000000; stroke-width: 0.8; stroke-linejoin: miter; stroke-linecap: square"/>
   </g>
   <g id="patch_14">
    <path d="M 43.088521 309.868217 
L 409.86 309.868217 
" style="fill: none; stroke: #000000; stroke-width: 0.8; stroke-linejoin: miter; stroke-linecap: square"/>
   </g>
   <g id="text_13">
    <!-- No smaller subset is robust across seeds -->
    <g transform="translate(43.088521 34.120095) scale(0.12 -0.12)">
     <defs>
      <path id="DejaVuSans-Bold-31" d="M 588 4666 
L 1931 4666 
L 3628 1466 
L 3628 4666 
L 4769 4666 
L 4769 0 
L 3425 0 
L 1728 3200 
L 1728 0 
L 588 0 
L 588 4666 
z
" transform="scale(0.015625)"/>
      <path id="DejaVuSans-Bold-52" d="M 2203 2784 
Q 1831 2784 1636 2517 
Q 1441 2250 1441 1747 
Q 1441 1244 1636 976 
Q 1831 709 2203 709 
Q 2569 709 2762 976 
Q 2956 1244 2956 1747 
Q 2956 2250 2762 2517 
Q 2569 2784 2203 2784 
z
M 2203 3584 
Q 3106 3584 3614 3096 
Q 4122 2609 4122 1747 
Q 4122 884 3614 396 
Q 3106 -91 2203 -91 
Q 1297 -91 786 396 
Q 275 884 275 1747 
Q 275 2609 786 3096 
Q 1297 3584 2203 3584 
z
" transform="scale(0.015625)"/>
      <path id="DejaVuSans-Bold-3" transform="scale(0.015625)"/>
      <path id="DejaVuSans-Bold-56" d="M 3272 3391 
L 3272 2541 
Q 2913 2691 2578 2766 
Q 2244 2841 1947 2841 
Q 1628 2841 1473 2761 
Q 1319 2681 1319 2516 
Q 1319 2381 1436 2309 
Q 1553 2238 1856 2203 
L 2053 2175 
Q 2913 2066 3209 1816 
Q 3506 1566 3506 1031 
Q 3506 472 3093 190 
Q 2681 -91 1863 -91 
Q 1516 -91 1145 -36 
Q 775 19 384 128 
L 384 978 
Q 719 816 1070 734 
Q 1422 653 1784 653 
Q 2113 653 2278 743 
Q 2444 834 2444 1013 
Q 2444 1163 2330 1236 
Q 2216 1309 1875 1350 
L 1678 1375 
Q 931 1469 631 1722 
Q 331 1975 331 2491 
Q 331 3047 712 3315 
Q 1094 3584 1881 3584 
Q 2191 3584 2531 3537 
Q 2872 3491 3272 3391 
z
" transform="scale(0.015625)"/>
      <path id="DejaVuSans-Bold-50" d="M 3781 2919 
Q 3994 3244 4286 3414 
Q 4578 3584 4928 3584 
Q 5531 3584 5847 3212 
Q 6163 2841 6163 2131 
L 6163 0 
L 5038 0 
L 5038 1825 
Q 5041 1866 5042 1909 
Q 5044 1953 5044 2034 
Q 5044 2406 4934 2573 
Q 4825 2741 4581 2741 
Q 4263 2741 4089 2478 
Q 3916 2216 3909 1719 
L 3909 0 
L 2784 0 
L 2784 1825 
Q 2784 2406 2684 2573 
Q 2584 2741 2328 2741 
Q 2006 2741 1831 2477 
Q 1656 2213 1656 1722 
L 1656 0 
L 531 0 
L 531 3500 
L 1656 3500 
L 1656 2988 
Q 1863 3284 2130 3434 
Q 2397 3584 2719 3584 
Q 3081 3584 3359 3409 
Q 3638 3234 3781 2919 
z
" transform="scale(0.015625)"/>
      <path id="DejaVuSans-Bold-44" d="M 2106 1575 
Q 1756 1575 1579 1456 
Q 1403 1338 1403 1106 
Q 1403 894 1545 773 
Q 1688 653 1941 653 
Q 2256 653 2472 879 
Q 2688 1106 2688 1447 
L 2688 1575 
L 2106 1575 
z
M 3816 1997 
L 3816 0 
L 2688 0 
L 2688 519 
Q 2463 200 2181 54 
Q 1900 -91 1497 -91 
Q 953 -91 614 226 
Q 275 544 275 1050 
Q 275 1666 698 1953 
Q 1122 2241 2028 2241 
L 2688 2241 
L 2688 2328 
Q 2688 2594 2478 2717 
Q 2269 2841 1825 2841 
Q 1466 2841 1156 2769 
Q 847 2697 581 2553 
L 581 3406 
Q 941 3494 1303 3539 
Q 1666 3584 2028 3584 
Q 2975 3584 3395 3211 
Q 3816 2838 3816 1997 
z
" transform="scale(0.015625)"/>
      <path id="DejaVuSans-Bold-4f" d="M 538 4863 
L 1656 4863 
L 1656 0 
L 538 0 
L 538 4863 
z
" transform="scale(0.015625)"/>
      <path id="DejaVuSans-Bold-48" d="M 4031 1759 
L 4031 1441 
L 1416 1441 
Q 1456 1047 1700 850 
Q 1944 653 2381 653 
Q 2734 653 3104 758 
Q 3475 863 3866 1075 
L 3866 213 
Q 3469 63 3072 -14 
Q 2675 -91 2278 -91 
Q 1328 -91 801 392 
Q 275 875 275 1747 
Q 275 2603 792 3093 
Q 1309 3584 2216 3584 
Q 3041 3584 3536 3087 
Q 4031 2591 4031 1759 
z
M 2881 2131 
Q 2881 2450 2695 2645 
Q 2509 2841 2209 2841 
Q 1884 2841 1681 2658 
Q 1478 2475 1428 2131 
L 2881 2131 
z
" transform="scale(0.015625)"/>
      <path id="DejaVuSans-Bold-55" d="M 3138 2547 
Q 2991 2616 2845 2648 
Q 2700 2681 2553 2681 
Q 2122 2681 1889 2404 
Q 1656 2128 1656 1613 
L 1656 0 
L 538 0 
L 538 3500 
L 1656 3500 
L 1656 2925 
Q 1872 3269 2151 3426 
Q 2431 3584 2822 3584 
Q 2878 3584 2943 3579 
Q 3009 3575 3134 3559 
L 3138 2547 
z
" transform="scale(0.015625)"/>
      <path id="DejaVuSans-Bold-58" d="M 500 1363 
L 500 3500 
L 1625 3500 
L 1625 3150 
Q 1625 2866 1622 2436 
Q 1619 2006 1619 1863 
Q 1619 1441 1641 1255 
Q 1663 1069 1716 984 
Q 1784 875 1895 815 
Q 2006 756 2150 756 
Q 2500 756 2700 1025 
Q 2900 1294 2900 1772 
L 2900 3500 
L 4019 3500 
L 4019 0 
L 2900 0 
L 2900 506 
Q 2647 200 2364 54 
Q 2081 -91 1741 -91 
Q 1134 -91 817 281 
Q 500 653 500 1363 
z
" transform="scale(0.015625)"/>
      <path id="DejaVuSans-Bold-45" d="M 2400 722 
Q 2759 722 2948 984 
Q 3138 1247 3138 1747 
Q 3138 2247 2948 2509 
Q 2759 2772 2400 2772 
Q 2041 2772 1848 2508 
Q 1656 2244 1656 1747 
Q 1656 1250 1848 986 
Q 2041 722 2400 722 
z
M 1656 2988 
Q 1888 3294 2169 3439 
Q 2450 3584 2816 3584 
Q 3463 3584 3878 3070 
Q 4294 2556 4294 1747 
Q 4294 938 3878 423 
Q 3463 -91 2816 -91 
Q 2450 -91 2169 54 
Q 1888 200 1656 506 
L 1656 0 
L 538 0 
L 538 4863 
L 1656 4863 
L 1656 2988 
z
" transform="scale(0.015625)"/>
      <path id="DejaVuSans-Bold-57" d="M 1759 4494 
L 1759 3500 
L 2913 3500 
L 2913 2700 
L 1759 2700 
L 1759 1216 
Q 1759 972 1856 886 
Q 1953 800 2241 800 
L 2816 800 
L 2816 0 
L 1856 0 
Q 1194 0 917 276 
Q 641 553 641 1216 
L 641 2700 
L 84 2700 
L 84 3500 
L 641 3500 
L 641 4494 
L 1759 4494 
z
" transform="scale(0.015625)"/>
      <path id="DejaVuSans-Bold-4c" d="M 538 3500 
L 1656 3500 
L 1656 0 
L 538 0 
L 538 3500 
z
M 538 4863 
L 1656 4863 
L 1656 3950 
L 538 3950 
L 538 4863 
z
" transform="scale(0.015625)"/>
      <path id="DejaVuSans-Bold-46" d="M 3366 3391 
L 3366 2478 
Q 3138 2634 2908 2709 
Q 2678 2784 2431 2784 
Q 1963 2784 1702 2511 
Q 1441 2238 1441 1747 
Q 1441 1256 1702 982 
Q 1963 709 2431 709 
Q 2694 709 2930 787 
Q 3166 866 3366 1019 
L 3366 103 
Q 3103 6 2833 -42 
Q 2563 -91 2291 -91 
Q 1344 -91 809 395 
Q 275 881 275 1747 
Q 275 2613 809 3098 
Q 1344 3584 2291 3584 
Q 2566 3584 2833 3536 
Q 3100 3488 3366 3391 
z
" transform="scale(0.015625)"/>
      <path id="DejaVuSans-Bold-47" d="M 2919 2988 
L 2919 4863 
L 4044 4863 
L 4044 0 
L 2919 0 
L 2919 506 
Q 2688 197 2409 53 
Q 2131 -91 1766 -91 
Q 1119 -91 703 423 
Q 288 938 288 1747 
Q 288 2556 703 3070 
Q 1119 3584 1766 3584 
Q 2128 3584 2408 3439 
Q 2688 3294 2919 2988 
z
M 2181 722 
Q 2541 722 2730 984 
Q 2919 1247 2919 1747 
Q 2919 2247 2730 2509 
Q 2541 2772 2181 2772 
Q 1825 2772 1636 2509 
Q 1447 2247 1447 1747 
Q 1447 1247 1636 984 
Q 1825 722 2181 722 
z
" transform="scale(0.015625)"/>
     </defs>
     <use xlink:href="#DejaVuSans-Bold-31"/>
     <use xlink:href="#DejaVuSans-Bold-52" transform="translate(83.6875 0)"/>
     <use xlink:href="#DejaVuSans-Bold-3" transform="translate(152.390625 0)"/>
     <use xlink:href="#DejaVuSans-Bold-56" transform="translate(187.203125 0)"/>
     <use xlink:href="#DejaVuSans-Bold-50" transform="translate(246.71875 0)"/>
     <use xlink:href="#DejaVuSans-Bold-44" transform="translate(350.921875 0)"/>
     <use xlink:href="#DejaVuSans-Bold-4f" transform="translate(418.40625 0)"/>
     <use xlink:href="#DejaVuSans-Bold-4f" transform="translate(452.6875 0)"/>
     <use xlink:href="#DejaVuSans-Bold-48" transform="translate(486.96875 0)"/>
     <use xlink:href="#DejaVuSans-Bold-55" transform="translate(554.796875 0)"/>
     <use xlink:href="#DejaVuSans-Bold-3" transform="translate(604.109375 0)"/>
     <use xlink:href="#DejaVuSans-Bold-56" transform="translate(638.921875 0)"/>
     <use xlink:href="#DejaVuSans-Bold-58" transform="translate(698.4375 0)"/>
     <use xlink:href="#DejaVuSans-Bold-45" transform="translate(769.625 0)"/>
     <use xlink:href="#DejaVuSans-Bold-56" transform="translate(841.203125 0)"/>
     <use xlink:href="#DejaVuSans-Bold-48" transform="translate(900.71875 0)"/>
     <use xlink:href="#DejaVuSans-Bold-57" transform="translate(968.546875 0)"/>
     <use xlink:href="#DejaVuSans-Bold-3" transform="translate(1016.34375 0)"/>
     <use xlink:href="#DejaVuSans-Bold-4c" transform="translate(1051.15625 0)"/>
     <use xlink:href="#DejaVuSans-Bold-56" transform="translate(1085.4375 0)"/>
     <use xlink:href="#DejaVuSans-Bold-3" transform="translate(1144.953125 0)"/>
     <use xlink:href="#DejaVuSans-Bold-55" transform="translate(1179.765625 0)"/>
     <use xlink:href="#DejaVuSans-Bold-52" transform="translate(1229.078125 0)"/>
     <use xlink:href="#DejaVuSans-Bold-45" transform="translate(1297.78125 0)"/>
     <use xlink:href="#DejaVuSans-Bold-58" transform="translate(1369.359375 0)"/>
     <use xlink:href="#DejaVuSans-Bold-56" transform="translate(1440.546875 0)"/>
     <use xlink:href="#DejaVuSans-Bold-57" transform="translate(1500.0625 0)"/>
     <use xlink:href="#DejaVuSans-Bold-3" transform="translate(1547.859375 0)"/>
     <use xlink:href="#DejaVuSans-Bold-44" transform="translate(1582.671875 0)"/>
     <use xlink:href="#DejaVuSans-Bold-46" transform="translate(1650.15625 0)"/>
     <use xlink:href="#DejaVuSans-Bold-55" transform="translate(1709.4375 0)"/>
     <use xlink:href="#DejaVuSans-Bold-52" transform="translate(1758.75 0)"/>
     <use xlink:href="#DejaVuSans-Bold-56" transform="translate(1827.453125 0)"/>
     <use xlink:href="#DejaVuSans-Bold-56" transform="translate(1886.96875 0)"/>
     <use xlink:href="#DejaVuSans-Bold-3" transform="translate(1946.484375 0)"/>
     <use xlink:href="#DejaVuSans-Bold-56" transform="translate(1981.296875 0)"/>
     <use xlink:href="#DejaVuSans-Bold-48" transform="translate(2040.8125 0)"/>
     <use xlink:href="#DejaVuSans-Bold-48" transform="translate(2108.640625 0)"/>
     <use xlink:href="#DejaVuSans-Bold-47" transform="translate(2176.46875 0)"/>
     <use xlink:href="#DejaVuSans-Bold-56" transform="translate(2248.046875 0)"/>
    </g>
   </g>
   <g id="legend_1">
    <g id="patch_15">
     <path d="M 52.088521 56.718533 
L 72.088521 56.718533 
L 72.088521 49.718533 
L 52.088521 49.718533 
z
" style="fill: #2457c5"/>
    </g>
    <g id="text_14">
     <!-- seed 0 -->
     <g transform="translate(80.088521 56.718533) scale(0.1 -0.1)">
      <use xlink:href="#DejaVuSans-56"/>
      <use xlink:href="#DejaVuSans-48" transform="translate(52.09375 0)"/>
      <use xlink:href="#DejaVuSans-48" transform="translate(113.625 0)"/>
      <use xlink:href="#DejaVuSans-47" transform="translate(175.15625 0)"/>
      <use xlink:href="#DejaVuSans-3" transform="translate(238.640625 0)"/>
      <use xlink:href="#DejaVuSans-13" transform="translate(270.421875 0)"/>
     </g>
    </g>
    <g id="patch_16">
     <path d="M 52.088521 71.719314 
L 72.088521 71.719314 
L 72.088521 64.719314 
L 52.088521 64.719314 
z
" style="fill: #e05a47"/>
    </g>
    <g id="text_15">
     <!-- seed 1 -->
     <g transform="translate(80.088521 71.719314) scale(0.1 -0.1)">
      <use xlink:href="#DejaVuSans-56"/>
      <use xlink:href="#DejaVuSans-48" transform="translate(52.09375 0)"/>
      <use xlink:href="#DejaVuSans-48" transform="translate(113.625 0)"/>
      <use xlink:href="#DejaVuSans-47" transform="translate(175.15625 0)"/>
      <use xlink:href="#DejaVuSans-3" transform="translate(238.640625 0)"/>
      <use xlink:href="#DejaVuSans-14" transform="translate(270.421875 0)"/>
     </g>
    </g>
   </g>
  </g>
  <g id="axes_2">
   <g id="patch_17">
    <path d="M 458.228281 309.868217 
L 824.99976 309.868217 
L 824.99976 40.120095 
L 458.228281 40.120095 
z
" style="fill: #ffffff"/>
   </g>
   <g id="matplotlib.axis_3">
    <g id="xtick_6">
     <g id="line2d_18">
      <g>
       <use xlink:href="#m63eef8aca8" x="495.88473" y="309.868217" style="stroke: #000000; stroke-width: 0.8"/>
      </g>
     </g>
     <g id="text_16">
      <!-- All heads -->
      <g transform="translate(451.630043 338.232771) rotate(-18) scale(0.1 -0.1)">
       <defs>
        <path id="DejaVuSans-4b" d="M 3513 2113 
L 3513 0 
L 2938 0 
L 2938 2094 
Q 2938 2591 2744 2837 
Q 2550 3084 2163 3084 
Q 1697 3084 1428 2787 
Q 1159 2491 1159 1978 
L 1159 0 
L 581 0 
L 581 4863 
L 1159 4863 
L 1159 2956 
Q 1366 3272 1645 3428 
Q 1925 3584 2291 3584 
Q 2894 3584 3203 3211 
Q 3513 2838 3513 2113 
z
" transform="scale(0.015625)"/>
       </defs>
       <use xlink:href="#DejaVuSans-24"/>
       <use xlink:href="#DejaVuSans-4f" transform="translate(68.40625 0)"/>
       <use xlink:href="#DejaVuSans-4f" transform="translate(96.1875 0)"/>
       <use xlink:href="#DejaVuSans-3" transform="translate(123.96875 0)"/>
       <use xlink:href="#DejaVuSans-4b" transform="translate(155.75 0)"/>
       <use xlink:href="#DejaVuSans-48" transform="translate(219.125 0)"/>
       <use xlink:href="#DejaVuSans-44" transform="translate(280.65625 0)"/>
       <use xlink:href="#DejaVuSans-47" transform="translate(341.9375 0)"/>
       <use xlink:href="#DejaVuSans-56" transform="translate(405.421875 0)"/>
      </g>
     </g>
    </g>
    <g id="xtick_7">
     <g id="line2d_19">
      <g>
       <use xlink:href="#m63eef8aca8" x="554.176446" y="309.868217" style="stroke: #000000; stroke-width: 0.8"/>
      </g>
     </g>
     <g id="text_17">
      <!-- Post-attn -->
      <g transform="translate(510.792571 337.949084) rotate(-18) scale(0.1 -0.1)">
       <defs>
        <path id="DejaVuSans-33" d="M 1259 4147 
L 1259 2394 
L 2053 2394 
Q 2494 2394 2734 2622 
Q 2975 2850 2975 3272 
Q 2975 3691 2734 3919 
Q 2494 4147 2053 4147 
L 1259 4147 
z
M 628 4666 
L 2053 4666 
Q 2838 4666 3239 4311 
Q 3641 3956 3641 3272 
Q 3641 2581 3239 2228 
Q 2838 1875 2053 1875 
L 1259 1875 
L 1259 0 
L 628 0 
L 628 4666 
z
" transform="scale(0.015625)"/>
        <path id="DejaVuSans-57" d="M 1172 4494 
L 1172 3500 
L 2356 3500 
L 2356 3053 
L 1172 3053 
L 1172 1153 
Q 1172 725 1289 603 
Q 1406 481 1766 481 
L 2356 481 
L 2356 0 
L 1766 0 
Q 1100 0 847 248 
Q 594 497 594 1153 
L 594 3053 
L 172 3053 
L 172 3500 
L 594 3500 
L 594 4494 
L 1172 4494 
z
" transform="scale(0.015625)"/>
        <path id="DejaVuSans-10" d="M 313 2009 
L 1997 2009 
L 1997 1497 
L 313 1497 
L 313 2009 
z
" transform="scale(0.015625)"/>
       </defs>
       <use xlink:href="#DejaVuSans-33"/>
       <use xlink:href="#DejaVuSans-52" transform="translate(56.734375 0)"/>
       <use xlink:href="#DejaVuSans-56" transform="translate(117.921875 0)"/>
       <use xlink:href="#DejaVuSans-57" transform="translate(170.015625 0)"/>
       <use xlink:href="#DejaVuSans-10" transform="translate(209.21875 0)"/>
       <use xlink:href="#DejaVuSans-44" transform="translate(245.296875 0)"/>
       <use xlink:href="#DejaVuSans-57" transform="translate(306.578125 0)"/>
       <use xlink:href="#DejaVuSans-57" transform="translate(345.78125 0)"/>
       <use xlink:href="#DejaVuSans-51" transform="translate(384.984375 0)"/>
      </g>
     </g>
    </g>
    <g id="xtick_8">
     <g id="line2d_20">
      <g>
       <use xlink:href="#m63eef8aca8" x="612.468162" y="309.868217" style="stroke: #000000; stroke-width: 0.8"/>
      </g>
     </g>
     <g id="text_18">
      <!-- MLP -->
      <g transform="translate(592.486221 330.345335) rotate(-18) scale(0.1 -0.1)">
       <defs>
        <path id="DejaVuSans-30" d="M 628 4666 
L 1569 4666 
L 2759 1491 
L 3956 4666 
L 4897 4666 
L 4897 0 
L 4281 0 
L 4281 4097 
L 3078 897 
L 2444 897 
L 1241 4097 
L 1241 0 
L 628 0 
L 628 4666 
z
" transform="scale(0.015625)"/>
        <path id="DejaVuSans-2f" d="M 628 4666 
L 1259 4666 
L 1259 531 
L 3531 531 
L 3531 0 
L 628 0 
L 628 4666 
z
" transform="scale(0.015625)"/>
       </defs>
       <use xlink:href="#DejaVuSans-30"/>
       <use xlink:href="#DejaVuSans-2f" transform="translate(86.28125 0)"/>
       <use xlink:href="#DejaVuSans-33" transform="translate(142 0)"/>
      </g>
     </g>
    </g>
    <g id="xtick_9">
     <g id="line2d_21">
      <g>
       <use xlink:href="#m63eef8aca8" x="670.759879" y="309.868217" style="stroke: #000000; stroke-width: 0.8"/>
      </g>
     </g>
     <g id="text_19">
      <!-- Random -->
      <g transform="translate(630.642288 336.888547) rotate(-18) scale(0.1 -0.1)">
       <defs>
        <path id="DejaVuSans-35" d="M 2841 2188 
Q 3044 2119 3236 1894 
Q 3428 1669 3622 1275 
L 4263 0 
L 3584 0 
L 2988 1197 
Q 2756 1666 2539 1819 
Q 2322 1972 1947 1972 
L 1259 1972 
L 1259 0 
L 628 0 
L 628 4666 
L 2053 4666 
Q 2853 4666 3247 4331 
Q 3641 3997 3641 3322 
Q 3641 2881 3436 2590 
Q 3231 2300 2841 2188 
z
M 1259 4147 
L 1259 2491 
L 2053 2491 
Q 2509 2491 2742 2702 
Q 2975 2913 2975 3322 
Q 2975 3731 2742 3939 
Q 2509 4147 2053 4147 
L 1259 4147 
z
" transform="scale(0.015625)"/>
        <path id="DejaVuSans-50" d="M 3328 2828 
Q 3544 3216 3844 3400 
Q 4144 3584 4550 3584 
Q 5097 3584 5394 3201 
Q 5691 2819 5691 2113 
L 5691 0 
L 5113 0 
L 5113 2094 
Q 5113 2597 4934 2840 
Q 4756 3084 4391 3084 
Q 3944 3084 3684 2787 
Q 3425 2491 3425 1978 
L 3425 0 
L 2847 0 
L 2847 2094 
Q 2847 2600 2669 2842 
Q 2491 3084 2119 3084 
Q 1678 3084 1418 2786 
Q 1159 2488 1159 1978 
L 1159 0 
L 581 0 
L 581 3500 
L 1159 3500 
L 1159 2956 
Q 1356 3278 1631 3431 
Q 1906 3584 2284 3584 
Q 2666 3584 2933 3390 
Q 3200 3197 3328 2828 
z
" transform="scale(0.015625)"/>
       </defs>
       <use xlink:href="#DejaVuSans-35"/>
       <use xlink:href="#DejaVuSans-44" transform="translate(67.28125 0)"/>
       <use xlink:href="#DejaVuSans-51" transform="translate(128.5625 0)"/>
       <use xlink:href="#DejaVuSans-47" transform="translate(191.9375 0)"/>
       <use xlink:href="#DejaVuSans-52" transform="translate(255.421875 0)"/>
       <use xlink:href="#DejaVuSans-50" transform="translate(316.609375 0)"/>
      </g>
     </g>
    </g>
    <g id="xtick_10">
     <g id="line2d_22">
      <g>
       <use xlink:href="#m63eef8aca8" x="729.051595" y="309.868217" style="stroke: #000000; stroke-width: 0.8"/>
      </g>
     </g>
     <g id="text_20">
      <!-- Wrong G -->
      <g transform="translate(687.355845 337.400579) rotate(-18) scale(0.1 -0.1)">
       <defs>
        <path id="DejaVuSans-3a" d="M 213 4666 
L 850 4666 
L 1831 722 
L 2809 4666 
L 3519 4666 
L 4500 722 
L 5478 4666 
L 6119 4666 
L 4947 0 
L 4153 0 
L 3169 4050 
L 2175 0 
L 1381 0 
L 213 4666 
z
" transform="scale(0.015625)"/>
        <path id="DejaVuSans-4a" d="M 2906 1791 
Q 2906 2416 2648 2759 
Q 2391 3103 1925 3103 
Q 1463 3103 1205 2759 
Q 947 2416 947 1791 
Q 947 1169 1205 825 
Q 1463 481 1925 481 
Q 2391 481 2648 825 
Q 2906 1169 2906 1791 
z
M 3481 434 
Q 3481 -459 3084 -895 
Q 2688 -1331 1869 -1331 
Q 1566 -1331 1297 -1286 
Q 1028 -1241 775 -1147 
L 775 -588 
Q 1028 -725 1275 -790 
Q 1522 -856 1778 -856 
Q 2344 -856 2625 -561 
Q 2906 -266 2906 331 
L 2906 616 
Q 2728 306 2450 153 
Q 2172 0 1784 0 
Q 1141 0 747 490 
Q 353 981 353 1791 
Q 353 2603 747 3093 
Q 1141 3584 1784 3584 
Q 2172 3584 2450 3431 
Q 2728 3278 2906 2969 
L 2906 3500 
L 3481 3500 
L 3481 434 
z
" transform="scale(0.015625)"/>
        <path id="DejaVuSans-2a" d="M 3809 666 
L 3809 1919 
L 2778 1919 
L 2778 2438 
L 4434 2438 
L 4434 434 
Q 4069 175 3628 42 
Q 3188 -91 2688 -91 
Q 1594 -91 976 548 
Q 359 1188 359 2328 
Q 359 3472 976 4111 
Q 1594 4750 2688 4750 
Q 3144 4750 3555 4637 
Q 3966 4525 4313 4306 
L 4313 3634 
Q 3963 3931 3569 4081 
Q 3175 4231 2741 4231 
Q 1884 4231 1454 3753 
Q 1025 3275 1025 2328 
Q 1025 1384 1454 906 
Q 1884 428 2741 428 
Q 3075 428 3337 486 
Q 3600 544 3809 666 
z
" transform="scale(0.015625)"/>
       </defs>
       <use xlink:href="#DejaVuSans-3a"/>
       <use xlink:href="#DejaVuSans-55" transform="translate(94.390625 0)"/>
       <use xlink:href="#DejaVuSans-52" transform="translate(133.296875 0)"/>
       <use xlink:href="#DejaVuSans-51" transform="translate(194.484375 0)"/>
       <use xlink:href="#DejaVuSans-4a" transform="translate(257.859375 0)"/>
       <use xlink:href="#DejaVuSans-3" transform="translate(321.34375 0)"/>
       <use xlink:href="#DejaVuSans-2a" transform="translate(353.125 0)"/>
      </g>
     </g>
    </g>
    <g id="xtick_11">
     <g id="line2d_23">
      <g>
       <use xlink:href="#m63eef8aca8" x="787.343311" y="309.868217" style="stroke: #000000; stroke-width: 0.8"/>
      </g>
     </g>
     <g id="text_21">
      <!-- Repeat G0 -->
      <g transform="translate(736.677909 340.314995) rotate(-18) scale(0.1 -0.1)">
       <defs>
        <path id="DejaVuSans-53" d="M 1159 525 
L 1159 -1331 
L 581 -1331 
L 581 3500 
L 1159 3500 
L 1159 2969 
Q 1341 3281 1617 3432 
Q 1894 3584 2278 3584 
Q 2916 3584 3314 3078 
Q 3713 2572 3713 1747 
Q 3713 922 3314 415 
Q 2916 -91 2278 -91 
Q 1894 -91 1617 61 
Q 1341 213 1159 525 
z
M 3116 1747 
Q 3116 2381 2855 2742 
Q 2594 3103 2138 3103 
Q 1681 3103 1420 2742 
Q 1159 2381 1159 1747 
Q 1159 1113 1420 752 
Q 1681 391 2138 391 
Q 2594 391 2855 752 
Q 3116 1113 3116 1747 
z
" transform="scale(0.015625)"/>
       </defs>
       <use xlink:href="#DejaVuSans-35"/>
       <use xlink:href="#DejaVuSans-48" transform="translate(65 0)"/>
       <use xlink:href="#DejaVuSans-53" transform="translate(126.53125 0)"/>
       <use xlink:href="#DejaVuSans-48" transform="translate(190.015625 0)"/>
       <use xlink:href="#DejaVuSans-44" transform="translate(251.546875 0)"/>
       <use xlink:href="#DejaVuSans-57" transform="translate(312.828125 0)"/>
       <use xlink:href="#DejaVuSans-3" transform="translate(352.03125 0)"/>
       <use xlink:href="#DejaVuSans-2a" transform="translate(383.8125 0)"/>
       <use xlink:href="#DejaVuSans-13" transform="translate(461.296875 0)"/>
      </g>
     </g>
    </g>
   </g>
   <g id="matplotlib.axis_4">
    <g id="ytick_7">
     <g id="line2d_24">
      <path d="M 458.228281 309.868217 
L 824.99976 309.868217 
" clip-path="url(#p81bb41d1a8)" style="fill: none; stroke: #d9dee8; stroke-opacity: 0.75; stroke-width: 0.8; stroke-linecap: square"/>
     </g>
     <g id="line2d_25">
      <g>
       <use xlink:href="#m378b70726b" x="458.228281" y="309.868217" style="stroke: #000000; stroke-width: 0.8"/>
      </g>
     </g>
     <g id="text_22">
      <!-- 0 -->
      <g transform="translate(444.865781 313.667045) scale(0.1 -0.1)">
       <use xlink:href="#DejaVuSans-13"/>
      </g>
     </g>
    </g>
    <g id="ytick_8">
     <g id="line2d_26">
      <path d="M 458.228281 258.487622 
L 824.99976 258.487622 
" clip-path="url(#p81bb41d1a8)" style="fill: none; stroke: #d9dee8; stroke-opacity: 0.75; stroke-width: 0.8; stroke-linecap: square"/>
     </g>
     <g id="line2d_27">
      <g>
       <use xlink:href="#m378b70726b" x="458.228281" y="258.487622" style="stroke: #000000; stroke-width: 0.8"/>
      </g>
     </g>
     <g id="text_23">
      <!-- 20 -->
      <g transform="translate(438.503281 262.28645) scale(0.1 -0.1)">
       <use xlink:href="#DejaVuSans-15"/>
       <use xlink:href="#DejaVuSans-13" transform="translate(63.625 0)"/>
      </g>
     </g>
    </g>
    <g id="ytick_9">
     <g id="line2d_28">
      <path d="M 458.228281 207.107028 
L 824.99976 207.107028 
" clip-path="url(#p81bb41d1a8)" style="fill: none; stroke: #d9dee8; stroke-opacity: 0.75; stroke-width: 0.8; stroke-linecap: square"/>
     </g>
     <g id="line2d_29">
      <g>
       <use xlink:href="#m378b70726b" x="458.228281" y="207.107028" style="stroke: #000000; stroke-width: 0.8"/>
      </g>
     </g>
     <g id="text_24">
      <!-- 40 -->
      <g transform="translate(438.503281 210.905856) scale(0.1 -0.1)">
       <use xlink:href="#DejaVuSans-17"/>
       <use xlink:href="#DejaVuSans-13" transform="translate(63.625 0)"/>
      </g>
     </g>
    </g>
    <g id="ytick_10">
     <g id="line2d_30">
      <path d="M 458.228281 155.726433 
L 824.99976 155.726433 
" clip-path="url(#p81bb41d1a8)" style="fill: none; stroke: #d9dee8; stroke-opacity: 0.75; stroke-width: 0.8; stroke-linecap: square"/>
     </g>
     <g id="line2d_31">
      <g>
       <use xlink:href="#m378b70726b" x="458.228281" y="155.726433" style="stroke: #000000; stroke-width: 0.8"/>
      </g>
     </g>
     <g id="text_25">
      <!-- 60 -->
      <g transform="translate(438.503281 159.525261) scale(0.1 -0.1)">
       <use xlink:href="#DejaVuSans-19"/>
       <use xlink:href="#DejaVuSans-13" transform="translate(63.625 0)"/>
      </g>
     </g>
    </g>
    <g id="ytick_11">
     <g id="line2d_32">
      <path d="M 458.228281 104.345838 
L 824.99976 104.345838 
" clip-path="url(#p81bb41d1a8)" style="fill: none; stroke: #d9dee8; stroke-opacity: 0.75; stroke-width: 0.8; stroke-linecap: square"/>
     </g>
     <g id="line2d_33">
      <g>
       <use xlink:href="#m378b70726b" x="458.228281" y="104.345838" style="stroke: #000000; stroke-width: 0.8"/>
      </g>
     </g>
     <g id="text_26">
      <!-- 80 -->
      <g transform="translate(438.503281 108.144666) scale(0.1 -0.1)">
       <use xlink:href="#DejaVuSans-1b"/>
       <use xlink:href="#DejaVuSans-13" transform="translate(63.625 0)"/>
      </g>
     </g>
    </g>
    <g id="ytick_12">
     <g id="line2d_34">
      <path d="M 458.228281 52.965244 
L 824.99976 52.965244 
" clip-path="url(#p81bb41d1a8)" style="fill: none; stroke: #d9dee8; stroke-opacity: 0.75; stroke-width: 0.8; stroke-linecap: square"/>
     </g>
     <g id="line2d_35">
      <g>
       <use xlink:href="#m378b70726b" x="458.228281" y="52.965244" style="stroke: #000000; stroke-width: 0.8"/>
      </g>
     </g>
     <g id="text_27">
      <!-- 100 -->
      <g transform="translate(432.140781 56.764072) scale(0.1 -0.1)">
       <use xlink:href="#DejaVuSans-14"/>
       <use xlink:href="#DejaVuSans-13" transform="translate(63.625 0)"/>
       <use xlink:href="#DejaVuSans-13" transform="translate(127.25 0)"/>
      </g>
     </g>
    </g>
    <g id="text_28">
     <!-- confirmation donor answers (%) -->
     <g transform="translate(425.738437 255.200406) rotate(-90) scale(0.1 -0.1)">
      <defs>
       <path id="DejaVuSans-13af" d="M 3431 3500 
L 3431 0 
L 2853 0 
L 2853 3053 
L 1275 3053 
L 1275 0 
L 697 0 
L 697 3053 
L 147 3053 
L 147 3500 
L 697 3500 
L 697 3744 
Q 697 4316 967 4589 
Q 1238 4863 1797 4863 
L 2375 4863 
L 2375 4384 
L 1825 4384 
Q 1516 4384 1395 4259 
Q 1275 4134 1275 3809 
L 1275 3500 
L 3431 3500 
z
M 2853 4856 
L 3431 4856 
L 3431 4128 
L 2853 4128 
L 2853 4856 
z
" transform="scale(0.015625)"/>
      </defs>
      <use xlink:href="#DejaVuSans-46"/>
      <use xlink:href="#DejaVuSans-52" transform="translate(54.984375 0)"/>
      <use xlink:href="#DejaVuSans-51" transform="translate(116.171875 0)"/>
      <use xlink:href="#DejaVuSans-13af" transform="translate(179.546875 0)"/>
      <use xlink:href="#DejaVuSans-55" transform="translate(242.53125 0)"/>
      <use xlink:href="#DejaVuSans-50" transform="translate(281.890625 0)"/>
      <use xlink:href="#DejaVuSans-44" transform="translate(379.296875 0)"/>
      <use xlink:href="#DejaVuSans-57" transform="translate(440.578125 0)"/>
      <use xlink:href="#DejaVuSans-4c" transform="translate(479.78125 0)"/>
      <use xlink:href="#DejaVuSans-52" transform="translate(507.5625 0)"/>
      <use xlink:href="#DejaVuSans-51" transform="translate(568.75 0)"/>
      <use xlink:href="#DejaVuSans-3" transform="translate(632.125 0)"/>
      <use xlink:href="#DejaVuSans-47" transform="translate(663.90625 0)"/>
      <use xlink:href="#DejaVuSans-52" transform="translate(727.390625 0)"/>
      <use xlink:href="#DejaVuSans-51" transform="translate(788.578125 0)"/>
      <use xlink:href="#DejaVuSans-52" transform="translate(851.953125 0)"/>
      <use xlink:href="#DejaVuSans-55" transform="translate(913.140625 0)"/>
      <use xlink:href="#DejaVuSans-3" transform="translate(954.25 0)"/>
      <use xlink:href="#DejaVuSans-44" transform="translate(986.03125 0)"/>
      <use xlink:href="#DejaVuSans-51" transform="translate(1047.3125 0)"/>
      <use xlink:href="#DejaVuSans-56" transform="translate(1110.6875 0)"/>
      <use xlink:href="#DejaVuSans-5a" transform="translate(1162.78125 0)"/>
      <use xlink:href="#DejaVuSans-48" transform="translate(1244.5625 0)"/>
      <use xlink:href="#DejaVuSans-55" transform="translate(1306.09375 0)"/>
      <use xlink:href="#DejaVuSans-56" transform="translate(1347.203125 0)"/>
      <use xlink:href="#DejaVuSans-3" transform="translate(1399.296875 0)"/>
      <use xlink:href="#DejaVuSans-b" transform="translate(1431.078125 0)"/>
      <use xlink:href="#DejaVuSans-8" transform="translate(1470.09375 0)"/>
      <use xlink:href="#DejaVuSans-c" transform="translate(1565.109375 0)"/>
     </g>
    </g>
   </g>
   <g id="patch_18">
    <path d="M 474.899712 309.868217 
L 495.88473 309.868217 
L 495.88473 58.986407 
L 474.899712 58.986407 
z
" clip-path="url(#p81bb41d1a8)" style="fill: #2457c5"/>
   </g>
   <g id="patch_19">
    <path d="M 533.191428 309.868217 
L 554.176446 309.868217 
L 554.176446 52.965244 
L 533.191428 52.965244 
z
" clip-path="url(#p81bb41d1a8)" style="fill: #2457c5"/>
   </g>
   <g id="patch_20">
    <path d="M 591.483145 309.868217 
L 612.468162 309.868217 
L 612.468162 309.868217 
L 591.483145 309.868217 
z
" clip-path="url(#p81bb41d1a8)" style="fill: #2457c5"/>
   </g>
   <g id="patch_21">
    <path d="M 649.774861 309.868217 
L 670.759879 309.868217 
L 670.759879 309.868217 
L 649.774861 309.868217 
z
" clip-path="url(#p81bb41d1a8)" style="fill: #2457c5"/>
   </g>
   <g id="patch_22">
    <path d="M 708.066577 309.868217 
L 729.051595 309.868217 
L 729.051595 309.868217 
L 708.066577 309.868217 
z
" clip-path="url(#p81bb41d1a8)" style="fill: #2457c5"/>
   </g>
   <g id="patch_23">
    <path d="M 766.358293 309.868217 
L 787.343311 309.868217 
L 787.343311 224.902911 
L 766.358293 224.902911 
z
" clip-path="url(#p81bb41d1a8)" style="fill: #2457c5"/>
   </g>
   <g id="patch_24">
    <path d="M 495.88473 309.868217 
L 516.869748 309.868217 
L 516.869748 63.669534 
L 495.88473 63.669534 
z
" clip-path="url(#p81bb41d1a8)" style="fill: #e05a47"/>
   </g>
   <g id="patch_25">
    <path d="M 554.176446 309.868217 
L 575.161464 309.868217 
L 575.161464 52.965244 
L 554.176446 52.965244 
z
" clip-path="url(#p81bb41d1a8)" style="fill: #e05a47"/>
   </g>
   <g id="patch_26">
    <path d="M 612.468162 309.868217 
L 633.45318 309.868217 
L 633.45318 309.868217 
L 612.468162 309.868217 
z
" clip-path="url(#p81bb41d1a8)" style="fill: #e05a47"/>
   </g>
   <g id="patch_27">
    <path d="M 670.759879 309.868217 
L 691.744897 309.868217 
L 691.744897 309.868217 
L 670.759879 309.868217 
z
" clip-path="url(#p81bb41d1a8)" style="fill: #e05a47"/>
   </g>
   <g id="patch_28">
    <path d="M 729.051595 309.868217 
L 750.036613 309.868217 
L 750.036613 309.868217 
L 729.051595 309.868217 
z
" clip-path="url(#p81bb41d1a8)" style="fill: #e05a47"/>
   </g>
   <g id="patch_29">
    <path d="M 787.343311 309.868217 
L 808.328329 309.868217 
L 808.328329 228.91702 
L 787.343311 228.91702 
z
" clip-path="url(#p81bb41d1a8)" style="fill: #e05a47"/>
   </g>
   <g id="patch_30">
    <path d="M 458.228281 309.868217 
L 458.228281 40.120095 
" style="fill: none; stroke: #000000; stroke-width: 0.8; stroke-linejoin: miter; stroke-linecap: square"/>
   </g>
   <g id="patch_31">
    <path d="M 458.228281 309.868217 
L 824.99976 309.868217 
" style="fill: none; stroke: #000000; stroke-width: 0.8; stroke-linejoin: miter; stroke-linecap: square"/>
   </g>
   <g id="text_29">
    <!-- The answer write is recipient-specific -->
    <g transform="translate(458.228281 34.120095) scale(0.12 -0.12)">
     <defs>
      <path id="DejaVuSans-Bold-37" d="M 31 4666 
L 4331 4666 
L 4331 3756 
L 2784 3756 
L 2784 0 
L 1581 0 
L 1581 3756 
L 31 3756 
L 31 4666 
z
" transform="scale(0.015625)"/>
      <path id="DejaVuSans-Bold-4b" d="M 4056 2131 
L 4056 0 
L 2931 0 
L 2931 347 
L 2931 1625 
Q 2931 2084 2911 2256 
Q 2891 2428 2841 2509 
Q 2775 2619 2662 2680 
Q 2550 2741 2406 2741 
Q 2056 2741 1856 2470 
Q 1656 2200 1656 1722 
L 1656 0 
L 538 0 
L 538 4863 
L 1656 4863 
L 1656 2988 
Q 1909 3294 2193 3439 
Q 2478 3584 2822 3584 
Q 3428 3584 3742 3212 
Q 4056 2841 4056 2131 
z
" transform="scale(0.015625)"/>
      <path id="DejaVuSans-Bold-51" d="M 4056 2131 
L 4056 0 
L 2931 0 
L 2931 347 
L 2931 1631 
Q 2931 2084 2911 2256 
Q 2891 2428 2841 2509 
Q 2775 2619 2662 2680 
Q 2550 2741 2406 2741 
Q 2056 2741 1856 2470 
Q 1656 2200 1656 1722 
L 1656 0 
L 538 0 
L 538 3500 
L 1656 3500 
L 1656 2988 
Q 1909 3294 2193 3439 
Q 2478 3584 2822 3584 
Q 3428 3584 3742 3212 
Q 4056 2841 4056 2131 
z
" transform="scale(0.015625)"/>
      <path id="DejaVuSans-Bold-5a" d="M 225 3500 
L 1313 3500 
L 1900 1088 
L 2491 3500 
L 3425 3500 
L 4013 1113 
L 4603 3500 
L 5691 3500 
L 4769 0 
L 3547 0 
L 2956 2406 
L 2369 0 
L 1147 0 
L 225 3500 
z
" transform="scale(0.015625)"/>
      <path id="DejaVuSans-Bold-53" d="M 1656 506 
L 1656 -1331 
L 538 -1331 
L 538 3500 
L 1656 3500 
L 1656 2988 
Q 1888 3294 2169 3439 
Q 2450 3584 2816 3584 
Q 3463 3584 3878 3070 
Q 4294 2556 4294 1747 
Q 4294 938 3878 423 
Q 3463 -91 2816 -91 
Q 2450 -91 2169 54 
Q 1888 200 1656 506 
z
M 2400 2772 
Q 2041 2772 1848 2508 
Q 1656 2244 1656 1747 
Q 1656 1250 1848 986 
Q 2041 722 2400 722 
Q 2759 722 2948 984 
Q 3138 1247 3138 1747 
Q 3138 2247 2948 2509 
Q 2759 2772 2400 2772 
z
" transform="scale(0.015625)"/>
      <path id="DejaVuSans-Bold-10" d="M 347 2297 
L 2309 2297 
L 2309 1388 
L 347 1388 
L 347 2297 
z
" transform="scale(0.015625)"/>
      <path id="DejaVuSans-Bold-13ab" d="M 3078 4863 
L 4206 4863 
L 4206 3950 
L 3078 3950 
L 3078 4863 
z
M 2847 4863 
L 2847 4128 
L 2228 4128 
Q 1994 4128 1903 4042 
Q 1813 3956 1813 3744 
L 1813 3500 
L 4206 3500 
L 4206 0 
L 3078 0 
L 3078 2700 
L 1813 2700 
L 1813 0 
L 684 0 
L 684 2700 
L 134 2700 
L 134 3500 
L 684 3500 
L 684 3744 
Q 684 4316 1003 4589 
Q 1322 4863 1991 4863 
L 2847 4863 
z
" transform="scale(0.015625)"/>
     </defs>
     <use xlink:href="#DejaVuSans-Bold-37"/>
     <use xlink:href="#DejaVuSans-Bold-4b" transform="translate(68.21875 0)"/>
     <use xlink:href="#DejaVuSans-Bold-48" transform="translate(139.40625 0)"/>
     <use xlink:href="#DejaVuSans-Bold-3" transform="translate(207.234375 0)"/>
     <use xlink:href="#DejaVuSans-Bold-44" transform="translate(242.046875 0)"/>
     <use xlink:href="#DejaVuSans-Bold-51" transform="translate(309.53125 0)"/>
     <use xlink:href="#DejaVuSans-Bold-56" transform="translate(380.71875 0)"/>
     <use xlink:href="#DejaVuSans-Bold-5a" transform="translate(440.234375 0)"/>
     <use xlink:href="#DejaVuSans-Bold-48" transform="translate(532.625 0)"/>
     <use xlink:href="#DejaVuSans-Bold-55" transform="translate(600.453125 0)"/>
     <use xlink:href="#DejaVuSans-Bold-3" transform="translate(649.765625 0)"/>
     <use xlink:href="#DejaVuSans-Bold-5a" transform="translate(684.578125 0)"/>
     <use xlink:href="#DejaVuSans-Bold-55" transform="translate(776.96875 0)"/>
     <use xlink:href="#DejaVuSans-Bold-4c" transform="translate(826.28125 0)"/>
     <use xlink:href="#DejaVuSans-Bold-57" transform="translate(860.5625 0)"/>
     <use xlink:href="#DejaVuSans-Bold-48" transform="translate(908.359375 0)"/>
     <use xlink:href="#DejaVuSans-Bold-3" transform="translate(976.1875 0)"/>
     <use xlink:href="#DejaVuSans-Bold-4c" transform="translate(1011 0)"/>
     <use xlink:href="#DejaVuSans-Bold-56" transform="translate(1045.28125 0)"/>
     <use xlink:href="#DejaVuSans-Bold-3" transform="translate(1104.796875 0)"/>
     <use xlink:href="#DejaVuSans-Bold-55" transform="translate(1139.609375 0)"/>
     <use xlink:href="#DejaVuSans-Bold-48" transform="translate(1188.921875 0)"/>
     <use xlink:href="#DejaVuSans-Bold-46" transform="translate(1256.75 0)"/>
     <use xlink:href="#DejaVuSans-Bold-4c" transform="translate(1316.03125 0)"/>
     <use xlink:href="#DejaVuSans-Bold-53" transform="translate(1350.3125 0)"/>
     <use xlink:href="#DejaVuSans-Bold-4c" transform="translate(1421.890625 0)"/>
     <use xlink:href="#DejaVuSans-Bold-48" transform="translate(1456.171875 0)"/>
     <use xlink:href="#DejaVuSans-Bold-51" transform="translate(1524 0)"/>
     <use xlink:href="#DejaVuSans-Bold-57" transform="translate(1595.1875 0)"/>
     <use xlink:href="#DejaVuSans-Bold-10" transform="translate(1642.984375 0)"/>
     <use xlink:href="#DejaVuSans-Bold-56" transform="translate(1684.484375 0)"/>
     <use xlink:href="#DejaVuSans-Bold-53" transform="translate(1744 0)"/>
     <use xlink:href="#DejaVuSans-Bold-48" transform="translate(1815.578125 0)"/>
     <use xlink:href="#DejaVuSans-Bold-46" transform="translate(1883.40625 0)"/>
     <use xlink:href="#DejaVuSans-Bold-4c" transform="translate(1942.6875 0)"/>
     <use xlink:href="#DejaVuSans-Bold-13ab" transform="translate(1976.96875 0)"/>
     <use xlink:href="#DejaVuSans-Bold-46" transform="translate(2051.09375 0)"/>
    </g>
   </g>
  </g>
  <g id="text_30">
   <!-- TEACH-0010 · Distributed downstream object write -->
   <g transform="translate(183.43125 15.15774) scale(0.16 -0.16)">
    <defs>
     <path id="DejaVuSans-Bold-28" d="M 588 4666 
L 3834 4666 
L 3834 3756 
L 1791 3756 
L 1791 2888 
L 3713 2888 
L 3713 1978 
L 1791 1978 
L 1791 909 
L 3903 909 
L 3903 0 
L 588 0 
L 588 4666 
z
" transform="scale(0.015625)"/>
     <path id="DejaVuSans-Bold-24" d="M 3419 850 
L 1538 850 
L 1241 0 
L 31 0 
L 1759 4666 
L 3194 4666 
L 4922 0 
L 3713 0 
L 3419 850 
z
M 1838 1716 
L 3116 1716 
L 2478 3572 
L 1838 1716 
z
" transform="scale(0.015625)"/>
     <path id="DejaVuSans-Bold-26" d="M 4288 256 
Q 3956 84 3597 -3 
Q 3238 -91 2847 -91 
Q 1681 -91 1000 561 
Q 319 1213 319 2328 
Q 319 3447 1000 4098 
Q 1681 4750 2847 4750 
Q 3238 4750 3597 4662 
Q 3956 4575 4288 4403 
L 4288 3438 
Q 3953 3666 3628 3772 
Q 3303 3878 2944 3878 
Q 2300 3878 1931 3465 
Q 1563 3053 1563 2328 
Q 1563 1606 1931 1193 
Q 2300 781 2944 781 
Q 3303 781 3628 887 
Q 3953 994 4288 1222 
L 4288 256 
z
" transform="scale(0.015625)"/>
     <path id="DejaVuSans-Bold-2b" d="M 588 4666 
L 1791 4666 
L 1791 2888 
L 3566 2888 
L 3566 4666 
L 4769 4666 
L 4769 0 
L 3566 0 
L 3566 1978 
L 1791 1978 
L 1791 0 
L 588 0 
L 588 4666 
z
" transform="scale(0.015625)"/>
     <path id="DejaVuSans-Bold-13" d="M 2944 2338 
Q 2944 3213 2780 3570 
Q 2616 3928 2228 3928 
Q 1841 3928 1675 3570 
Q 1509 3213 1509 2338 
Q 1509 1453 1675 1090 
Q 1841 728 2228 728 
Q 2613 728 2778 1090 
Q 2944 1453 2944 2338 
z
M 4147 2328 
Q 4147 1169 3647 539 
Q 3147 -91 2228 -91 
Q 1306 -91 806 539 
Q 306 1169 306 2328 
Q 306 3491 806 4120 
Q 1306 4750 2228 4750 
Q 3147 4750 3647 4120 
Q 4147 3491 4147 2328 
z
" transform="scale(0.015625)"/>
     <path id="DejaVuSans-Bold-14" d="M 750 831 
L 1813 831 
L 1813 3847 
L 722 3622 
L 722 4441 
L 1806 4666 
L 2950 4666 
L 2950 831 
L 4013 831 
L 4013 0 
L 750 0 
L 750 831 
z
" transform="scale(0.015625)"/>
     <path id="DejaVuSans-Bold-79" d="M 653 2828 
L 1778 2828 
L 1778 1619 
L 653 1619 
L 653 2828 
z
" transform="scale(0.015625)"/>
     <path id="DejaVuSans-Bold-27" d="M 1791 3756 
L 1791 909 
L 2222 909 
Q 2959 909 3348 1275 
Q 3738 1641 3738 2338 
Q 3738 3031 3350 3393 
Q 2963 3756 2222 3756 
L 1791 3756 
z
M 588 4666 
L 1856 4666 
Q 2919 4666 3439 4514 
Q 3959 4363 4331 4000 
Q 4659 3684 4818 3271 
Q 4978 2859 4978 2338 
Q 4978 1809 4818 1395 
Q 4659 981 4331 666 
Q 3956 303 3431 151 
Q 2906 0 1856 0 
L 588 0 
L 588 4666 
z
" transform="scale(0.015625)"/>
     <path id="DejaVuSans-Bold-4d" d="M 538 3500 
L 1656 3500 
L 1656 63 
Q 1656 -641 1318 -1011 
Q 981 -1381 341 -1381 
L -213 -1381 
L -213 -647 
L -19 -647 
Q 300 -647 419 -503 
Q 538 -359 538 63 
L 538 3500 
z
M 538 4863 
L 1656 4863 
L 1656 3950 
L 538 3950 
L 538 4863 
z
" transform="scale(0.015625)"/>
    </defs>
    <use xlink:href="#DejaVuSans-Bold-37"/>
    <use xlink:href="#DejaVuSans-Bold-28" transform="translate(68.21875 0)"/>
    <use xlink:href="#DejaVuSans-Bold-24" transform="translate(136.53125 0)"/>
    <use xlink:href="#DejaVuSans-Bold-26" transform="translate(213.921875 0)"/>
    <use xlink:href="#DejaVuSans-Bold-2b" transform="translate(287.3125 0)"/>
    <use xlink:href="#DejaVuSans-Bold-10" transform="translate(371 0)"/>
    <use xlink:href="#DejaVuSans-Bold-13" transform="translate(412.5 0)"/>
    <use xlink:href="#DejaVuSans-Bold-13" transform="translate(482.078125 0)"/>
    <use xlink:href="#DejaVuSans-Bold-14" transform="translate(551.65625 0)"/>
    <use xlink:href="#DejaVuSans-Bold-13" transform="translate(621.234375 0)"/>
    <use xlink:href="#DejaVuSans-Bold-3" transform="translate(690.8125 0)"/>
    <use xlink:href="#DejaVuSans-Bold-79" transform="translate(725.625 0)"/>
    <use xlink:href="#DejaVuSans-Bold-3" transform="translate(763.609375 0)"/>
    <use xlink:href="#DejaVuSans-Bold-27" transform="translate(798.421875 0)"/>
    <use xlink:href="#DejaVuSans-Bold-4c" transform="translate(881.4375 0)"/>
    <use xlink:href="#DejaVuSans-Bold-56" transform="translate(915.71875 0)"/>
    <use xlink:href="#DejaVuSans-Bold-57" transform="translate(975.234375 0)"/>
    <use xlink:href="#DejaVuSans-Bold-55" transform="translate(1023.03125 0)"/>
    <use xlink:href="#DejaVuSans-Bold-4c" transform="translate(1072.34375 0)"/>
    <use xlink:href="#DejaVuSans-Bold-45" transform="translate(1106.625 0)"/>
    <use xlink:href="#DejaVuSans-Bold-58" transform="translate(1178.203125 0)"/>
    <use xlink:href="#DejaVuSans-Bold-57" transform="translate(1249.390625 0)"/>
    <use xlink:href="#DejaVuSans-Bold-48" transform="translate(1297.1875 0)"/>
    <use xlink:href="#DejaVuSans-Bold-47" transform="translate(1365.015625 0)"/>
    <use xlink:href="#DejaVuSans-Bold-3" transform="translate(1436.59375 0)"/>
    <use xlink:href="#DejaVuSans-Bold-47" transform="translate(1471.40625 0)"/>
    <use xlink:href="#DejaVuSans-Bold-52" transform="translate(1542.984375 0)"/>
    <use xlink:href="#DejaVuSans-Bold-5a" transform="translate(1611.6875 0)"/>
    <use xlink:href="#DejaVuSans-Bold-51" transform="translate(1704.078125 0)"/>
    <use xlink:href="#DejaVuSans-Bold-56" transform="translate(1775.265625 0)"/>
    <use xlink:href="#DejaVuSans-Bold-57" transform="translate(1834.78125 0)"/>
    <use xlink:href="#DejaVuSans-Bold-55" transform="translate(1882.578125 0)"/>
    <use xlink:href="#DejaVuSans-Bold-48" transform="translate(1931.890625 0)"/>
    <use xlink:href="#DejaVuSans-Bold-44" transform="translate(1999.71875 0)"/>
    <use xlink:href="#DejaVuSans-Bold-50" transform="translate(2067.203125 0)"/>
    <use xlink:href="#DejaVuSans-Bold-3" transform="translate(2171.40625 0)"/>
    <use xlink:href="#DejaVuSans-Bold-52" transform="translate(2206.21875 0)"/>
    <use xlink:href="#DejaVuSans-Bold-45" transform="translate(2274.921875 0)"/>
    <use xlink:href="#DejaVuSans-Bold-4d" transform="translate(2346.5 0)"/>
    <use xlink:href="#DejaVuSans-Bold-48" transform="translate(2380.78125 0)"/>
    <use xlink:href="#DejaVuSans-Bold-46" transform="translate(2448.609375 0)"/>
    <use xlink:href="#DejaVuSans-Bold-57" transform="translate(2507.890625 0)"/>
    <use xlink:href="#DejaVuSans-Bold-3" transform="translate(2555.6875 0)"/>
    <use xlink:href="#DejaVuSans-Bold-5a" transform="translate(2590.5 0)"/>
    <use xlink:href="#DejaVuSans-Bold-55" transform="translate(2682.890625 0)"/>
    <use xlink:href="#DejaVuSans-Bold-4c" transform="translate(2732.203125 0)"/>
    <use xlink:href="#DejaVuSans-Bold-57" transform="translate(2766.484375 0)"/>
    <use xlink:href="#DejaVuSans-Bold-48" transform="translate(2814.28125 0)"/>
   </g>
  </g>
 </g>
 <defs>
  <clipPath id="p3ea9f3ceb3">
   <rect x="43.088521" y="40.120095" width="366.771479" height="269.748122"/>
  </clipPath>
  <clipPath id="p81bb41d1a8">
   <rect x="458.228281" y="40.120095" width="366.771479" height="269.748122"/>
  </clipPath>
 </defs>
</svg>
